<?xml version="1.0" encoding="utf-8"?>
<!-- Generator: Adobe Illustrator 21.0.2, SVG Export Plug-In . SVG Version: 6.00 Build 0)  -->
<svg version="1.1" id="Layer_1" xmlns="http://www.w3.org/2000/svg" xmlns:xlink="http://www.w3.org/1999/xlink" x="0px" y="0px"
	 viewBox="0 0 1369.2 666.3" style="enable-background:new 0 0 1369.2 666.3;" xml:space="preserve">
<style type="text/css">
	.st0{enable-background:new    ;}
	.st1{fill:#2D3134;}
</style>
<g id="Layer_2">
	<g id="text">
		<g class="st0">
			<path class="st1" d="M17.4,509.7v-58.8L228,152.1v-4.2l-198,4.2V90.3h279.6v58.8L102,448.5v3l210-3v61.2H17.4z"/>
			<path class="st1" d="M383.4,55.5H453v106.8c33.6-7.6,61.8-11.4,84.6-11.4c79.2,0,118.8,59.4,118.8,178.2
				c0,125.6-43.4,188.4-130.2,188.4c-18.4,0-41.8-2.4-70.2-7.2c-28.4-4.8-52.6-10.6-72.6-17.4V55.5z M453,451.5
				c23.2,5.6,45.2,8.4,66,8.4c20.8,0,34.4-3,40.8-9c16.4-13.6,24.6-57.6,24.6-132c0-38.4-2.4-66.8-7.2-85.2c-2-8-5.8-13.7-11.4-17.1
				c-5.6-3.4-10.6-5.4-15-6c-4.4-0.6-12-0.9-22.8-0.9c-22,0-47,4-75,12V451.5z"/>
			<path class="st1" d="M1015.2,334.5c0,60-10.8,105.5-32.4,136.5c-21.6,31-58.1,46.5-109.5,46.5c-51.4,0-88-15.5-109.8-46.5
				c-21.8-31-32.7-76.5-32.7-136.5s10.9-105.6,32.7-136.8c21.8-31.2,58.4-46.8,109.8-46.8c51.4,0,87.9,15.6,109.5,46.8
				C1004.4,228.9,1015.2,274.5,1015.2,334.5z M817.5,437.4c9.8,16.6,28.5,24.9,56.1,24.9s46.2-8.3,55.8-24.9
				c9.6-16.6,14.4-51,14.4-103.2s-4.8-86.5-14.4-102.9c-9.6-16.4-28.2-24.6-55.8-24.6s-46.3,8.2-56.1,24.6
				c-9.8,16.4-14.7,50.7-14.7,102.9S807.7,420.8,817.5,437.4z"/>
			<path class="st1" d="M1057.8,509.7L1167,326.1l-105.6-167.4h76.8l69,129h3.6l67.8-129h76.8l-105.6,168l109.2,183h-79.2
				l-70.2-141.6h-3.6l-69,141.6H1057.8z"/>
		</g>
	</g>
</g>
</svg>
